<?xml version="1.0" encoding="utf-8"?>
<!-- Generator: Adobe Illustrator 27.9.1, SVG Export Plug-In . SVG Version: 6.00 Build 0)  -->
<svg version="1.1" id="Layer_2_00000035520862736067110090000010283505998089267630_"
	 xmlns="http://www.w3.org/2000/svg" xmlns:xlink="http://www.w3.org/1999/xlink" x="0px" y="0px" viewBox="0 0 199.8 47.6"
	 style="enable-background:new 0 0 199.8 47.6;" xml:space="preserve">
<style type="text/css">
	.st0{fill:#593921;}
</style>
<g id="Layer_1-2">
	<path class="st0" d="M1.4,4.7l0.1,2.6v15.5H0V1.1h0.7l14.1,16.3c1,1.1,1.7,2,2.2,2.7c-0.1-1-0.1-2.1-0.1-3.3V1.3h1.4v21.6h-0.7
		L3.3,6.4c-1-1.1-1.6-1.9-1.9-2.3L1.4,4.7z M26.2,22.8V1.3h1.4v21.5H26.2z M37,4.7L37,7.3v15.5h-1.4V1.1h0.7l14.1,16.3
		c1,1.1,1.7,2,2.2,2.7c-0.1-1-0.1-2.1-0.1-3.3V1.3h1.4v21.6h-0.7L38.9,6.4c-1-1.1-1.6-1.9-1.9-2.3C37,4.1,37,4.7,37,4.7z M63,15.3
		l-3.1,7.4h-1.5l9-21.6h0.8l9.1,21.6h-1.6l-3.1-7.4H63z M67.7,3.6c0,0-0.1,0.1-0.1,0.4c-0.3,0.9-0.6,1.6-0.8,2.2l-3.3,8h8.6
		l-3.3-7.9C68.1,4.6,67.7,3.8,67.7,3.6z M92.5,22.8V1.4c1.9-0.1,3.5-0.2,4.8-0.2c2,0,3.7,0.5,5,1.6c1.3,1,2,2.5,2,4.4
		c0,1.3-0.4,2.5-1.1,3.6s-1.6,2-2.6,2.7c0.7,1,1.7,2.2,2.7,3.7c1.1,1.4,1.8,2.3,2.1,2.6c1.2,1.3,2.6,2,4.1,2.2l0,1
		c-1.2,0-2.2-0.2-3-0.5c-0.8-0.4-1.5-0.9-2.2-1.6c-0.7-0.7-2.4-3-5.1-6.7c-2,0-3.7-0.1-5.3-0.2v8.8C94,22.8,92.5,22.8,92.5,22.8z
		 M98.5,12.9c0.9,0,1.8-0.6,2.8-1.7s1.5-2.5,1.5-4s-0.5-2.7-1.6-3.5c-1-0.8-2.4-1.2-4.1-1.2c-0.9,0-1.9,0-3.2,0.1v10.2
		C95.6,12.9,97.1,12.9,98.5,12.9z M111,12c0-3.1,1-5.7,3-7.9c2-2.1,4.5-3.2,7.6-3.2c2.1,0,4.1,0.6,5.8,1.7l1.8-2.7l1,0.7l-1.8,2.7
		c1.2,1,2.2,2.3,2.8,3.8c0.7,1.5,1,3.1,1,4.9c0,3.1-1,5.8-3,7.9s-4.5,3.2-7.6,3.2c-2.1,0-4.1-0.6-5.8-1.7L114,24l-1-0.7l1.8-2.6
		c-1.2-1-2.2-2.3-2.8-3.8C111.4,15.4,111,13.8,111,12L111,12z M130.6,12c0-3.1-1-5.6-3.1-7.5l-10.9,15.8c1.4,1,3.1,1.5,5,1.5
		c2.7,0,4.8-0.9,6.5-2.8C129.7,17.1,130.6,14.8,130.6,12L130.6,12z M121.6,2.3c-2.7,0-4.8,0.9-6.5,2.8c-1.7,1.9-2.5,4.3-2.5,7.2
		s1,5.3,3.1,7.3l10.9-15.8C125.1,2.8,123.4,2.3,121.6,2.3z M140.2,4.7l0.1,2.6v15.5h-1.4V1.1h0.7l14.1,16.3c1,1.1,1.7,2,2.2,2.7
		c-0.1-1-0.1-2.1-0.1-3.3V1.3h1.4v21.6h-0.7L142.1,6.4c-1-1.1-1.6-1.9-1.9-2.3L140.2,4.7L140.2,4.7z M171.9,21.7
		c2.8,0,5.1-0.8,6.8-2.3c1.7-1.5,2.6-3.9,2.6-6.9s-1-5.5-2.9-7.3c-1.9-1.8-4.3-2.7-7.1-2.7c-1.8,0-3.4,0-4.7,0.2v18.9
		C167.8,21.6,169.6,21.7,171.9,21.7L171.9,21.7z M171.2,1.1c3.3,0,6.1,1,8.3,3.1c2.2,2,3.3,4.8,3.3,8.3c0,1.8-0.3,3.4-0.9,4.7
		c-0.6,1.4-1.3,2.5-2.3,3.3c-2.1,1.7-4.6,2.5-7.7,2.5c-2,0-4.3-0.1-6.9-0.3V1.3C167.1,1.2,169.1,1.1,171.2,1.1z M189.5,22.8V1.3h10
		v1.3h-8.5v7.9h7.7v1.2h-7.7v9.8h8.9v1.3L189.5,22.8L189.5,22.8z"/>
	<path class="st0" d="M63.8,41.1V27.8h1v12.7c0,1.9-0.4,3.4-1.2,4.5c-0.4,0.6-0.8,1-1.2,1.4c-0.4,0.4-0.9,0.8-1.5,1.2l-0.4-0.7
		C62.7,45.3,63.8,43.4,63.8,41.1z M70.1,42.8V29.1h6.4V30h-5.4v5h4.9v0.8h-4.9v6.1h5.6v0.9H70.1z M84,39.5l3.9-10h0.6L92,39.5
		l0.5,1.7c0-0.3,0.2-0.8,0.5-1.7l3.5-10.4h1l-4.8,13.7h-0.6c-2.3-6.7-3.6-10.2-3.6-10.5c-0.1-0.4-0.2-0.8-0.4-1.1
		c-0.1,0.2-0.3,0.7-0.6,1.5l-4,10.1h-0.6l-4.8-13.7h1.1l3.5,10.2c0.2,0.6,0.4,1.2,0.6,1.9C83.4,41,83.6,40.4,84,39.5z M100.3,42.8
		V29.1h6.4V30h-5.4v5h4.9v0.8h-4.9v6.1h5.6v0.9H100.3z M110.7,42.8V29.1h1v12.8h6.3v0.9H110.7L110.7,42.8z M120.8,42.8V29.2
		c1.2-0.1,2.2-0.1,3.1-0.1c1.3,0,2.3,0.3,3.2,1c0.8,0.7,1.3,1.6,1.3,2.8c0,0.8-0.2,1.6-0.7,2.3c-0.5,0.7-1,1.3-1.6,1.7
		c1.7,2.2,2.7,3.5,3.1,4c0.8,0.8,1.7,1.3,2.6,1.4l0,0.7c-0.8,0-1.4-0.1-1.9-0.3c-0.5-0.2-1-0.6-1.5-1.1c-0.5-0.5-1.5-1.9-3.2-4.2
		c-1.1,0-2.2,0-3.3-0.1v5.6L120.8,42.8L120.8,42.8z M124.6,36.5c0.6,0,1.1-0.4,1.8-1.1c0.6-0.7,0.9-1.6,0.9-2.5s-0.3-1.7-1-2.2
		c-0.7-0.5-1.5-0.8-2.6-0.8c-0.6,0-1.2,0-2,0.1v6.4C122.8,36.5,123.7,36.5,124.6,36.5L124.6,36.5z M136.6,42.8h-0.9v-4.9l-5.1-8.8
		h1.1l4,6.8c0.3,0.6,0.5,0.9,0.5,1c0.1-0.2,0.3-0.5,0.5-1l4-6.8h1.1l-5.1,8.8L136.6,42.8L136.6,42.8z"/>
</g>
</svg>
